<svg xmlns="http://www.w3.org/2000/svg" width="80" height="80" viewBox="0 0 80 80" fill="none">
    <g clip-path="url(#clip0_127_2)">
        <circle cx="40" cy="40" r="39" stroke="white" stroke-width="2"/>
        <path d="M49.224 77.8929C49.2877 78.4842 48.8244 79 48.2298 79H40.1158H32.0978C31.4681 79 30.9934 78.4289 31.1105 77.8102C31.6384 75.0196 32.8972 68.115 32.882 65.8006C22.9847 67.9207 20.2221 60.4003 20.2221 60.4003C18.4145 56.8022 16.6068 55 16.6068 55C12.9915 52.8609 16.6068 53.201 16.6068 53.201C20.2221 53.201 22.0329 56.799 22.0329 56.799C25.2075 62.1612 30.854 61.2998 32.882 60.3971C32.882 58.5981 33.6741 55.8773 34.6897 54.9968C26.7916 54.11 20.2157 49.5965 20.2157 40.5981C20.2157 31.5997 22.0298 29.8006 23.8406 27.9984C23.4765 27.1116 21.9627 23.8314 23.8981 19C23.8981 19 27.4527 19 31.068 24.4003C32.8597 22.6172 38.3018 22.6013 40.1126 22.6013C41.9171 22.6013 47.3592 22.6172 49.1509 24.4003C52.7662 19 56.3304 19 56.3304 19C58.2626 23.8314 56.752 27.1116 56.3847 27.9984C58.1924 29.7975 60 31.5965 60 40.5981C60 49.5997 53.4337 54.11 45.5324 54.9968C46.5512 55.8741 47.3401 58.9732 47.3401 60.3971L49.224 77.8929Z"
              fill="white"/>
    </g>
    <defs>
        <clipPath id="clip0_127_2">
            <rect width="80" height="80" fill="white"/>
        </clipPath>
    </defs>
</svg>
