<svg xmlns="http://www.w3.org/2000/svg" width="160" height="54" viewBox="0 0 160 54" fill="none">
    <g opacity="0.16">
        <rect x="0.5" y="0.5" width="159" height="53" rx="26.5" stroke="white"/>
        <path d="M39.2262 52.5777C39.2692 52.9768 38.9565 53.325 38.5551 53.325H33.0782H27.666C27.2409 53.325 26.9206 52.9395 26.9996 52.5219C27.3559 50.6382 28.2056 45.9776 28.1954 44.4154C21.5147 45.8465 19.6499 40.7702 19.6499 40.7702C18.4298 38.3415 17.2096 37.125 17.2096 37.125C14.7693 35.6811 17.2096 35.9107 17.2096 35.9107C19.6499 35.9107 20.8722 38.3394 20.8722 38.3394C23.0151 41.9588 26.8265 41.3774 28.1954 40.7681C28.1954 39.5537 28.73 37.7172 29.4155 37.1229C24.0843 36.5243 19.6456 33.4777 19.6456 27.4037C19.6456 21.3298 20.8701 20.1154 22.0924 18.8989C21.8466 18.3003 20.8248 16.0862 22.1312 12.825C22.1312 12.825 24.5306 12.825 26.9709 16.4702C28.1803 15.2666 31.8537 15.2559 33.076 15.2559C34.294 15.2559 37.9675 15.2666 39.1769 16.4702C41.6172 12.825 44.023 12.825 44.023 12.825C45.3273 16.0862 44.3076 18.3003 44.0597 18.8989C45.2798 20.1133 46.5 21.3277 46.5 27.4037C46.5 33.4798 42.0677 36.5243 36.7344 37.1229C37.4221 37.715 37.9545 39.8069 37.9545 40.7681L39.2262 52.5777Z"
              fill="white"/>
    </g>
</svg>
