<svg xmlns="http://www.w3.org/2000/svg" width="80" height="80" viewBox="0 0 80 80" fill="none">
  <g clip-path="url(#clip0_127_5)">
    <circle cx="40" cy="40" r="39" stroke="white" stroke-width="2"/>
    <path fill-rule="evenodd" clip-rule="evenodd" d="M17.956 39.4978C29.4987 34.4173 37.1957 31.068 41.0469 29.4498C52.0428 24.8294 54.3276 24.0268 55.8169 24.0003C56.1444 23.9945 56.8768 24.0765 57.3512 24.4653C57.7517 24.7937 57.8619 25.2373 57.9147 25.5486C57.9674 25.8599 58.0331 26.5691 57.9809 27.1233C57.385 33.4482 54.8067 48.7972 53.495 55.8812C52.9399 58.8787 51.8471 59.8838 50.789 59.9822C48.4897 60.1959 46.7437 58.447 44.5166 56.9723C41.0318 54.6645 39.0631 53.2279 35.6804 50.976C31.7711 48.3735 34.3053 46.9431 36.5332 44.6055C37.1163 43.9937 47.2472 34.6845 47.4433 33.84C47.4678 33.7344 47.4906 33.3407 47.2591 33.1328C47.0276 32.925 46.6859 32.996 46.4393 33.0526C46.0898 33.1327 40.5227 36.85 29.738 44.2045C28.1578 45.3007 26.7265 45.8348 25.4441 45.8068C24.0303 45.7759 21.3108 44.9993 19.2892 44.3354C16.8096 43.5211 14.8388 43.0906 15.0104 41.7077C15.0998 40.9874 16.0817 40.2508 17.956 39.4978Z" fill="white"/>
  </g>
  <defs>
    <clipPath id="clip0_127_5">
      <rect width="80" height="80" fill="white"/>
    </clipPath>
  </defs>
</svg>