<svg xmlns="http://www.w3.org/2000/svg" width="160" height="54" viewBox="0 0 160 54" fill="none">
    <g opacity="0.16">
        <rect x="0.5" y="0.5" width="159" height="53" rx="26.5" stroke="white"/>
        <path fill-rule="evenodd" clip-rule="evenodd"
              d="M18.1203 26.661C25.9116 23.2317 31.1071 20.9709 33.7066 19.8786C41.1289 16.7599 42.6711 16.2181 43.6764 16.2002C43.8975 16.1963 44.3918 16.2516 44.712 16.5141C44.9824 16.7358 45.0568 17.0352 45.0924 17.2453C45.128 17.4554 45.1723 17.9342 45.1371 18.3082C44.7349 22.5775 42.9945 32.9381 42.1091 37.7198C41.7345 39.7432 40.9968 40.4216 40.2826 40.488C38.7305 40.6323 37.552 39.4518 36.0487 38.4563C33.6965 36.8986 32.3676 35.9289 30.0843 34.4088C27.4455 32.6521 29.1561 31.6866 30.6599 30.1087C31.0535 29.6958 37.8919 23.4121 38.0242 22.842C38.0408 22.7707 38.0562 22.505 37.8999 22.3647C37.7436 22.2244 37.513 22.2723 37.3465 22.3105C37.1106 22.3646 33.3528 24.8738 26.0731 29.838C25.0065 30.578 24.0404 30.9385 23.1747 30.9196C22.2205 30.8988 20.3848 30.3745 19.0202 29.9264C17.3465 29.3768 16.0162 29.0862 16.132 28.1527C16.1924 27.6665 16.8551 27.1693 18.1203 26.661Z"
              fill="white"/>
    </g>
</svg>
